<svg width="657" height="657" fill="none" xmlns="http://www.w3.org/2000/svg">
  <style>
    #dark {
      visibility: hidden;
    }

    @media (prefers-color-scheme: dark) {
      #light {
        visibility: hidden;
      }

      #dark {
        visibility: visible;
      }
    }
  </style>
  <g clip-path="url(#a)" id="light">
    <path d="m201.89 459.38 34.219-42.76-110.157-88.12 110.157-88.12-34.219-42.76-136.875 109.5a27.379 27.379 0 0 0-7.575 33.241 27.37 27.37 0 0 0 7.575 9.519l136.875 109.5zm253.219-261.76-34.219 42.76 110.157 88.12-110.157 88.12 34.219 42.76 136.875-109.5a27.367 27.367 0 0 0 10.278-21.38 27.365 27.365 0 0 0-10.278-21.38l-136.875-109.5zM409.968 88.038l-109.5 492.75-53.464-11.88 109.5-492.75 53.464 11.88z" fill="#CBD5E0"/>
    <g style="mix-blend-mode:hard-light" filter="url(#b)">
      <ellipse cx="328.525" cy="328.631" rx="328.515" ry="302.778" fill="#128DFF" fill-opacity=".2"/>
    </g>
    <g style="mix-blend-mode:hard-light" filter="url(#c)">
      <path d="m226.12 239.426-104.592 83.669-6.955 5.563 6.955 5.563L226.12 417.89l-25.316 31.635-131.313-105.05v-.001a20.254 20.254 0 0 1-7.605-15.816 20.245 20.245 0 0 1 7.604-15.816l.001-.001 131.313-105.05 25.316 31.635zM430.93 417.89l104.593-83.669 6.954-5.563-6.954-5.563-104.593-83.669 25.316-31.635 131.313 105.05.001.001a20.24 20.24 0 0 1 5.604 7.042 20.238 20.238 0 0 1 0 17.549 20.246 20.246 0 0 1-5.604 7.041l-.001.001-131.313 105.05-25.316-31.635zM361.939 84.815l39.555 8.79-106.41 478.841-39.554-8.79 106.409-478.84z" stroke="#0094FF" stroke-width="14.248"/>
    </g>
    <g style="mix-blend-mode:hard-light" filter="url(#d)">
      <path d="m223.039 239.084-102.881 82.299-9.094 7.275 9.094 7.275 102.881 82.299-22.577 28.213L70.861 342.763l-.002-.001a18.064 18.064 0 0 1-6.78-14.104 18.063 18.063 0 0 1 6.78-14.104l.002-.001 129.601-103.681 22.577 28.212zm210.972 179.148 102.881-82.299 9.094-7.275-9.094-7.275-102.881-82.299 22.577-28.212L586.19 314.553l.002.001a18.058 18.058 0 0 1 0 28.208l-.002.001-129.602 103.682-22.577-28.213zM363.603 87.43l35.275 7.84L293.42 569.83l-35.275-7.839L363.603 87.43z" stroke="#0094FF" stroke-width="18.632"/>
    </g>
    <g style="mix-blend-mode:hard-light" filter="url(#e)">
      <path d="m226.12 239.426-104.592 83.669-6.955 5.563 6.955 5.563L226.12 417.89l-25.316 31.635-131.313-105.05v-.001a20.254 20.254 0 0 1-7.605-15.816 20.245 20.245 0 0 1 7.604-15.816l.001-.001 131.313-105.05 25.316 31.635zM430.93 417.89l104.593-83.669 6.954-5.563-6.954-5.563-104.593-83.669 25.316-31.635 131.313 105.05.001.001a20.24 20.24 0 0 1 5.604 7.042 20.238 20.238 0 0 1 0 17.549 20.246 20.246 0 0 1-5.604 7.041l-.001.001-131.313 105.05-25.316-31.635zM361.939 84.815l39.555 8.79-106.41 478.841-39.554-8.79 106.409-478.84z" stroke="#00B3FF" stroke-opacity=".2" stroke-width="14.248"/>
    </g>
    <g filter="url(#f)">
      <path d="m229.972 239.854-106.733 85.381-4.279 3.423 4.279 3.424 106.733 85.381-28.74 35.913L67.78 346.615l-.001-.001a22.993 22.993 0 0 1 0-35.912L201.233 203.94l28.74 35.914zm197.107 177.609 106.732-85.381 4.28-3.424-4.28-3.423-106.732-85.381 28.74-35.914 133.452 106.762h.001a22.995 22.995 0 0 1 6.362 27.918 22.995 22.995 0 0 1-6.362 7.994l-.001.001-133.452 106.761-28.74-35.913zM359.858 81.546l44.905 9.979-107.598 484.19-44.904-9.978L359.858 81.546z" stroke="#82D9FF" stroke-width="8.768"/>
    </g>
    <g filter="url(#g)">
      <path d="M201.574 456.457 66.41 348.326a25.178 25.178 0 0 1-9.456-19.668 25.181 25.181 0 0 1 9.456-19.668l135.164-108.131 31.479 39.337-108.445 86.75-2.139 1.712 2.139 1.712 108.445 86.75-31.479 39.337zM590.64 348.326 455.477 456.457l-31.48-39.337 108.445-86.75 2.14-1.712-2.14-1.712-108.445-86.75 31.48-39.337L590.64 308.99h.001a25.178 25.178 0 0 1 0 39.336l1.369 1.712-1.37-1.712zM358.194 78.931l49.184 10.93-108.549 488.47-49.184-10.93 108.549-488.47z" stroke="#fff" stroke-width="4.384"/>
    </g>
  </g>
  <g filter="url(#y)" clip-path="url(#x)" id="dark">
    <path d="m201.89 459.38 34.219-42.76-110.157-88.12 110.157-88.12-34.219-42.76-136.875 109.5a27.379 27.379 0 0 0-7.575 33.241 27.37 27.37 0 0 0 7.575 9.519l136.875 109.5zm253.219-261.76-34.219 42.76 110.157 88.12-110.157 88.12 34.219 42.76 136.875-109.5a27.367 27.367 0 0 0 10.278-21.38 27.365 27.365 0 0 0-10.278-21.38l-136.875-109.5zM409.968 88.038l-109.5 492.75-53.464-11.88 109.5-492.75 53.464 11.88z" fill="#CBD5E0"/>
  </g>
  <defs>
    <filter id="b" x="-65.75" y="-39.907" width="788.55" height="737.076" filterUnits="userSpaceOnUse" color-interpolation-filters="sRGB">
      <feFlood flood-opacity="0" result="BackgroundImageFix"/>
      <feBlend in="SourceGraphic" in2="BackgroundImageFix" result="shape"/>
      <feGaussianBlur stdDeviation="32.88" result="effect1_foregroundBlur"/>
    </filter>
    <filter id="c" x="-10.997" y="10.556" width="679.045" height="636.15" filterUnits="userSpaceOnUse" color-interpolation-filters="sRGB">
      <feFlood flood-opacity="0" result="BackgroundImageFix"/>
      <feBlend in="SourceGraphic" in2="BackgroundImageFix" result="shape"/>
      <feGaussianBlur stdDeviation="32.88" result="effect1_foregroundBlur"/>
    </filter>
    <filter id="d" x="32.843" y="54.395" width="591.366" height="548.471" filterUnits="userSpaceOnUse" color-interpolation-filters="sRGB">
      <feFlood flood-opacity="0" result="BackgroundImageFix"/>
      <feBlend in="SourceGraphic" in2="BackgroundImageFix" result="shape"/>
      <feGaussianBlur stdDeviation="10.96" result="effect1_foregroundBlur"/>
    </filter>
    <filter id="e" x="26.267" y="69.739" width="604.518" height="561.623" filterUnits="userSpaceOnUse" color-interpolation-filters="sRGB">
      <feFlood flood-opacity="0" result="BackgroundImageFix"/>
      <feColorMatrix in="SourceAlpha" values="0 0 0 0 0 0 0 0 0 0 0 0 0 0 0 0 0 0 127 0" result="hardAlpha"/>
      <feOffset dy="14.248"/>
      <feGaussianBlur stdDeviation="5.48"/>
      <feColorMatrix values="0 0 0 0 0 0 0 0 0 0.051 0 0 0 0 0.082 0 0 0 0.7 0"/>
      <feBlend mode="multiply" in2="BackgroundImageFix" result="effect1_dropShadow"/>
      <feColorMatrix in="SourceAlpha" values="0 0 0 0 0 0 0 0 0 0 0 0 0 0 0 0 0 0 127 0" result="hardAlpha"/>
      <feOffset dy="21.92"/>
      <feGaussianBlur stdDeviation="14.248"/>
      <feColorMatrix values="0 0 0 0 0 0 0 0 0 0.4 0 0 0 0 1 0 0 0 1 0"/>
      <feBlend mode="color-dodge" in2="effect1_dropShadow" result="effect2_dropShadow"/>
      <feBlend in="SourceGraphic" in2="effect2_dropShadow" result="shape"/>
      <feColorMatrix in="SourceAlpha" values="0 0 0 0 0 0 0 0 0 0 0 0 0 0 0 0 0 0 127 0" result="hardAlpha"/>
      <feOffset dx="-1.425" dy="2.85"/>
      <feGaussianBlur stdDeviation=".712"/>
      <feComposite in2="hardAlpha" operator="arithmetic" k2="-1" k3="1"/>
      <feColorMatrix values="0 0 0 0 1 0 0 0 0 1 0 0 0 0 1 0 0 0 0.5 0"/>
      <feBlend in2="shape" result="effect3_innerShadow"/>
    </filter>
    <filter id="f" x="52.571" y="74.123" width="551.91" height="509.015" filterUnits="userSpaceOnUse" color-interpolation-filters="sRGB">
      <feFlood flood-opacity="0" result="BackgroundImageFix"/>
      <feBlend in="SourceGraphic" in2="BackgroundImageFix" result="shape"/>
      <feGaussianBlur stdDeviation="1.096" result="effect1_foregroundBlur"/>
    </filter>
    <filter id="g" x="53.301" y="74.854" width="550.448" height="507.553" filterUnits="userSpaceOnUse" color-interpolation-filters="sRGB">
      <feFlood flood-opacity="0" result="BackgroundImageFix"/>
      <feBlend in="SourceGraphic" in2="BackgroundImageFix" result="shape"/>
      <feGaussianBlur stdDeviation=".731" result="effect1_foregroundBlur"/>
    </filter>
    <clipPath id="a">
      <path fill="#fff" d="M0 0h657v657H0z"/>
    </clipPath>
    <clipPath id="x">
      <path fill="#fff" d="M0 0h657v657H0z"/>
    </clipPath>
    <filter id="y" x="-92.263" y="-12.842" width="841.526" height="798.631" filterUnits="userSpaceOnUse" color-interpolation-filters="sRGB">
      <feFlood flood-opacity="0" result="BackgroundImageFix"/>
      <feColorMatrix in="SourceAlpha" values="0 0 0 0 0 0 0 0 0 0 0 0 0 0 0 0 0 0 127 0" result="hardAlpha"/>
      <feOffset dy="-3.457"/>
      <feGaussianBlur stdDeviation=".595"/>
      <feColorMatrix values="0 0 0 0 0 0 0 0 0 0 0 0 0 0 0 0 0 0 0.0698148 0"/>
      <feBlend in2="BackgroundImageFix" result="effect1_dropShadow"/>
      <feColorMatrix in="SourceAlpha" values="0 0 0 0 0 0 0 0 0 0 0 0 0 0 0 0 0 0 127 0" result="hardAlpha"/>
      <feOffset dy="-1.074"/>
      <feColorMatrix values="0 0 0 0 0 0 0 0 0 0 0 0 0 0 0 0 0 0 0.113852 0"/>
      <feBlend in2="effect1_dropShadow" result="effect2_dropShadow"/>
      <feColorMatrix in="SourceAlpha" values="0 0 0 0 0 0 0 0 0 0 0 0 0 0 0 0 0 0 127 0" result="hardAlpha"/>
      <feOffset dy="6.706"/>
      <feGaussianBlur stdDeviation="2.297"/>
      <feColorMatrix values="0 0 0 0 0 0 0 0 0 0 0 0 0 0 0 0 0 0 0.145 0"/>
      <feBlend in2="effect2_dropShadow" result="effect3_dropShadow"/>
      <feColorMatrix in="SourceAlpha" values="0 0 0 0 0 0 0 0 0 0 0 0 0 0 0 0 0 0 127 0" result="hardAlpha"/>
      <feOffset dy="19.441"/>
      <feGaussianBlur stdDeviation="12.386"/>
      <feColorMatrix values="0 0 0 0 0 0 0 0 0 0 0 0 0 0 0 0 0 0 0.176148 0"/>
      <feBlend in2="effect3_dropShadow" result="effect4_dropShadow"/>
      <feColorMatrix in="SourceAlpha" values="0 0 0 0 0 0 0 0 0 0 0 0 0 0 0 0 0 0 127 0" result="hardAlpha"/>
      <feOffset dy="36.686"/>
      <feGaussianBlur stdDeviation="34.623"/>
      <feColorMatrix values="0 0 0 0 0 0 0 0 0 0 0 0 0 0 0 0 0 0 0.220185 0"/>
      <feBlend in2="effect4_dropShadow" result="effect5_dropShadow"/>
      <feColorMatrix in="SourceAlpha" values="0 0 0 0 0 0 0 0 0 0 0 0 0 0 0 0 0 0 127 0" result="hardAlpha"/>
      <feOffset dy="58"/>
      <feGaussianBlur stdDeviation="73.5"/>
      <feColorMatrix values="0 0 0 0 0 0 0 0 0 0 0 0 0 0 0 0 0 0 0.29 0"/>
      <feBlend in2="effect5_dropShadow" result="effect6_dropShadow"/>
      <feBlend in="SourceGraphic" in2="effect6_dropShadow" result="shape"/>
    </filter>
  </defs>
</svg>