<svg version="1.0" xmlns="http://www.w3.org/2000/svg" width="933.333" height="933.333" viewBox="0 0 700 700">
  <path d="M379.6 82.7c-.7 2.3-7.5 32.8-8.2 36.7-.3 1.6-.7 3.2-.9 3.6-.2.4-.7 2.1-1 3.8-.3 1.7-2.3 11.3-4.6 21.4-2.3 10.1-4.9 22.1-5.9 26.8-1 4.7-2.6 11.6-3.5 15.5-.9 3.8-1.9 8-2.1 9.2-.2 1.3-2.7 12.5-5.5 25-6.1 27.5-5.5 24.8-6.8 30.3-.5 2.5-1.3 6-1.6 7.9-.3 1.9-.8 3.7-1 4.1-.2.4-.7 2.2-1 4.1-.3 1.9-2 9.5-3.6 16.9-1.7 7.4-3.3 14.6-3.5 16-.3 1.4-.7 3.1-.9 3.9-.3.7-1.6 6.6-2.9 13-1.4 6.4-3.4 15.4-4.5 20.1-1.1 4.7-4.1 17.9-6.6 29.5-2.6 11.5-4.9 21.9-5.1 23-.3 1.1-.7 3.1-1 4.5-.3 1.4-2.8 12.6-5.5 25-2.8 12.4-5.3 23.5-5.5 24.6-.2 1.2-1.8 8.1-3.4 15.4-1.6 7.3-3.2 14.2-3.4 15.4-.2 1.1-.9 4.1-1.5 6.6s-3.4 14.8-6.2 27.5c-2.8 12.6-5.3 23.9-5.5 25-.3 1.1-.7 3.1-1 4.5-.3 1.4-.7 3.2-.9 4-.2.8-.7 3-1 4.9-.3 1.9-.8 3.7-1 4.1-.2.4-.7 2.2-1 4.1-.3 1.9-2 9.5-3.6 16.9-1.7 7.4-3.3 14.6-3.5 16-.3 1.4-.7 3.2-1 4-.3.8-.9 3.4-1.3 5.8-.8 3.8-.6 4.3 1.3 4.7 11.7 2.7 28.6 6.5 30.6 6.8 2.8.5 19.5 4.5 22.2 5.3 2 .6 2.1.1 7.3-23.3 4.1-19.3 10.5-48.2 11-50.3.2-.8 1.5-6.9 3-13.5 1.4-6.6 3-13.6 3.5-15.5.5-1.9 1.1-4.6 1.4-6 .6-3.4 4.7-21.7 9.6-43.5 2.2-9.9 6.4-28.3 9.1-41 2.8-12.6 5.2-23.7 5.4-24.5.6-2.4 7.9-35.5 13.4-60.5 2.8-12.7 6-26.8 7.1-31.5 1.9-8.1 9.5-42.6 14.4-65 1.3-5.8 8.9-40.2 17-76.5s15.1-67.7 15.6-69.7l.8-3.8-4.2-1.1c-2.2-.6-5-1.3-6.1-1.5-3.5-.6-42.9-9.5-44.7-10-1-.3-1.8.2-2.2 1.3zM211.9 213.1c-1.3 1.2-4 3.3-5.9 4.8-1.9 1.4-3.7 2.8-4 3.1-.3.3-28.6 23-63 50.4-76 60.7-74.6 59.5-77.8 66.6-5 10.7-2.6 24.4 5.6 32.3 5.5 5.2 147.6 118.7 148.4 118.4.8-.3 35.8-44 35.8-44.7 0-.4-26.1-21.5-58-47s-58-46.7-58-47.2c0-.4 1.7-2 3.8-3.5 3.8-2.8 33.3-26.3 34.2-27.3.3-.3 13.8-11.1 30-24s29.7-23.7 30-24c.3-.3 4.4-3.7 9.3-7.4 4.8-3.8 8.7-7.1 8.7-7.4 0-.5-4.1-6.4-5.6-7.9-.6-.6-7.5-9.3-15.4-19.2-7.9-10-14.7-18.1-15-18.1-.4 0-1.8 1-3.1 2.1zM478 219.3c-3.6 4.5-7.3 9.1-8.2 10.2-7.5 8.9-20.7 26.1-20.5 26.7.1.4 15.3 12.8 33.8 27.6 18.5 14.8 34.2 27.4 35 28.1.8.6 11.5 9.2 23.9 19.1 12.4 9.9 22.6 18.3 22.8 18.8.1.4-7.1 6.6-16 13.7-9 7.1-16.5 13.2-16.8 13.5-.3.3-19.1 15.4-41.7 33.5-22.7 18.1-41.3 33.5-41.3 34.1 0 .7.4 1.4.8 1.6.4.1 8.1 9.5 17.1 20.8 9 11.3 16.8 20.9 17.2 21.4.7.8 9.4-5.2 14.5-9.9.6-.5 2.8-2.4 4.9-4 5.5-4.3 65.6-52.3 68-54.3 1.1-.9 11.9-9.6 24-19.2s22.5-17.9 23.1-18.5c.6-.5 2.9-2.4 5-4 13.3-10.3 17.7-17.4 17.7-28.4 0-11.3-3.5-17.3-16.3-27.4-9-7.2-8.5-6.8-18.5-14.9-4.9-4-9.4-7.6-10-8.1-2.7-2.1-20.4-16.2-23.5-18.7-1.9-1.6-15.2-12.2-29.5-23.6-14.3-11.5-26.4-21.2-27-21.6-7.4-6.2-31.1-24.8-31.5-24.8-.3 0-3.4 3.7-7 8.3z"/>
</svg>